<mxfile host="Electron" agent="Mozilla/5.0 (X11; Linux x86_64) AppleWebKit/537.36 (KHTML, like Gecko) draw.io/28.2.5 Chrome/138.0.7204.251 Electron/37.6.1 Safari/537.36" version="28.2.5">
  <diagram name="第 1 页" id="A2wYnKDMZFF023bxGnZ8">
    <mxGraphModel dx="1210" dy="1126" grid="1" gridSize="10" guides="1" tooltips="1" connect="1" arrows="1" fold="1" page="1" pageScale="1" pageWidth="827" pageHeight="1169" math="0" shadow="0">
      <root>
        <mxCell id="0" />
        <mxCell id="1" parent="0" />
        <mxCell id="lc5mf7nCTQjh2SExQ85K-13" value="" style="rounded=0;whiteSpace=wrap;html=1;" parent="1" vertex="1">
          <mxGeometry x="870" y="150" width="1270" height="3890" as="geometry" />
        </mxCell>
        <mxCell id="fyX_qp0nPDoWCMaDwxBh-18" value="META-INF/spring/org.springframework.boot.autoconfigure.AutoConfiguration.imports中加载的AutoConfiguration" style="text;html=1;align=center;verticalAlign=middle;whiteSpace=wrap;rounded=0;fontSize=20;fontStyle=1" parent="1" vertex="1">
          <mxGeometry x="870" y="3980" width="1211.25" height="30" as="geometry" />
        </mxCell>
        <mxCell id="DPeQgXxFAQS-mUAcXnZ--1" value="org.springframework.boot.autoconfigure.admin.SpringApplicationAdminJmxAutoConfiguration&lt;div&gt;org.springframework.boot.autoconfigure.aop.AopAutoConfiguration&lt;/div&gt;&lt;div&gt;org.springframework.boot.autoconfigure.amqp.RabbitAutoConfiguration&lt;/div&gt;&lt;div&gt;org.springframework.boot.autoconfigure.batch.BatchAutoConfiguration&lt;/div&gt;&lt;div&gt;org.springframework.boot.autoconfigure.cache.CacheAutoConfiguration&lt;/div&gt;&lt;div&gt;org.springframework.boot.autoconfigure.cassandra.CassandraAutoConfiguration&lt;/div&gt;&lt;div&gt;org.springframework.boot.autoconfigure.context.ConfigurationPropertiesAutoConfiguration&lt;/div&gt;&lt;div&gt;org.springframework.boot.autoconfigure.context.LifecycleAutoConfiguration&lt;/div&gt;&lt;div&gt;org.springframework.boot.autoconfigure.context.MessageSourceAutoConfiguration&lt;/div&gt;&lt;div&gt;org.springframework.boot.autoconfigure.context.PropertyPlaceholderAutoConfiguration&lt;/div&gt;&lt;div&gt;org.springframework.boot.autoconfigure.couchbase.CouchbaseAutoConfiguration&lt;/div&gt;&lt;div&gt;org.springframework.boot.autoconfigure.dao.PersistenceExceptionTranslationAutoConfiguration&lt;/div&gt;&lt;div&gt;org.springframework.boot.autoconfigure.data.cassandra.CassandraDataAutoConfiguration&lt;/div&gt;&lt;div&gt;org.springframework.boot.autoconfigure.data.cassandra.CassandraReactiveDataAutoConfiguration&lt;/div&gt;&lt;div&gt;org.springframework.boot.autoconfigure.data.cassandra.CassandraReactiveRepositoriesAutoConfiguration&lt;/div&gt;&lt;div&gt;org.springframework.boot.autoconfigure.data.cassandra.CassandraRepositoriesAutoConfiguration&lt;/div&gt;&lt;div&gt;org.springframework.boot.autoconfigure.data.couchbase.CouchbaseDataAutoConfiguration&lt;/div&gt;&lt;div&gt;org.springframework.boot.autoconfigure.data.couchbase.CouchbaseReactiveDataAutoConfiguration&lt;/div&gt;&lt;div&gt;org.springframework.boot.autoconfigure.data.couchbase.CouchbaseReactiveRepositoriesAutoConfiguration&lt;/div&gt;&lt;div&gt;org.springframework.boot.autoconfigure.data.couchbase.CouchbaseRepositoriesAutoConfiguration&lt;/div&gt;&lt;div&gt;&lt;div&gt;org.springframework.boot.autoconfigure.data.elasticsearch.ElasticsearchDataAutoConfiguration&lt;/div&gt;&lt;div&gt;org.springframework.boot.autoconfigure.data.elasticsearch.ElasticsearchRepositoriesAutoConfiguration&lt;/div&gt;&lt;div&gt;org.springframework.boot.autoconfigure.data.elasticsearch.ReactiveElasticsearchRepositoriesAutoConfiguration&lt;/div&gt;&lt;div&gt;org.springframework.boot.autoconfigure.data.jdbc.JdbcRepositoriesAutoConfiguration&lt;/div&gt;&lt;div&gt;org.springframework.boot.autoconfigure.data.jpa.JpaRepositoriesAutoConfiguration&lt;/div&gt;&lt;div&gt;org.springframework.boot.autoconfigure.data.ldap.LdapRepositoriesAutoConfiguration&lt;/div&gt;&lt;div&gt;org.springframework.boot.autoconfigure.data.mongo.MongoDataAutoConfiguration&lt;/div&gt;&lt;div&gt;org.springframework.boot.autoconfigure.data.mongo.MongoReactiveDataAutoConfiguration&lt;/div&gt;&lt;div&gt;org.springframework.boot.autoconfigure.data.mongo.MongoReactiveRepositoriesAutoConfiguration&lt;/div&gt;&lt;div&gt;org.springframework.boot.autoconfigure.data.mongo.MongoRepositoriesAutoConfiguration&lt;/div&gt;&lt;div&gt;org.springframework.boot.autoconfigure.data.neo4j.Neo4jDataAutoConfiguration&lt;/div&gt;&lt;div&gt;org.springframework.boot.autoconfigure.data.neo4j.Neo4jReactiveDataAutoConfiguration&lt;/div&gt;&lt;div&gt;org.springframework.boot.autoconfigure.data.neo4j.Neo4jReactiveRepositoriesAutoConfiguration&lt;/div&gt;&lt;div&gt;org.springframework.boot.autoconfigure.data.neo4j.Neo4jRepositoriesAutoConfiguration&lt;/div&gt;&lt;div&gt;org.springframework.boot.autoconfigure.data.r2dbc.R2dbcDataAutoConfiguration&lt;/div&gt;&lt;div&gt;org.springframework.boot.autoconfigure.data.r2dbc.R2dbcRepositoriesAutoConfiguration&lt;/div&gt;&lt;div&gt;org.springframework.boot.autoconfigure.data.redis.RedisAutoConfiguration&lt;/div&gt;&lt;div&gt;org.springframework.boot.autoconfigure.data.redis.RedisReactiveAutoConfiguration&lt;/div&gt;&lt;div&gt;org.springframework.boot.autoconfigure.data.redis.RedisRepositoriesAutoConfiguration&lt;/div&gt;&lt;div&gt;org.springframework.boot.autoconfigure.data.rest.RepositoryRestMvcAutoConfiguration&lt;/div&gt;&lt;div&gt;org.springframework.boot.autoconfigure.data.web.SpringDataWebAutoConfiguration&lt;/div&gt;&lt;div&gt;org.springframework.boot.autoconfigure.elasticsearch.ElasticsearchClientAutoConfiguration&lt;/div&gt;&lt;div&gt;org.springframework.boot.autoconfigure.elasticsearch.ElasticsearchRestClientAutoConfiguration&lt;/div&gt;&lt;div&gt;org.springframework.boot.autoconfigure.elasticsearch.ReactiveElasticsearchClientAutoConfiguration&lt;/div&gt;&lt;div&gt;org.springframework.boot.autoconfigure.flyway.FlywayAutoConfiguration&lt;/div&gt;&lt;div&gt;org.springframework.boot.autoconfigure.freemarker.FreeMarkerAutoConfiguration&lt;/div&gt;&lt;div&gt;org.springframework.boot.autoconfigure.graphql.GraphQlAutoConfiguration&lt;/div&gt;&lt;div&gt;org.springframework.boot.autoconfigure.graphql.data.GraphQlReactiveQueryByExampleAutoConfiguration&lt;/div&gt;&lt;div&gt;org.springframework.boot.autoconfigure.graphql.data.GraphQlReactiveQuerydslAutoConfiguration&lt;/div&gt;&lt;div&gt;org.springframework.boot.autoconfigure.graphql.data.GraphQlQueryByExampleAutoConfiguration&lt;/div&gt;&lt;div&gt;org.springframework.boot.autoconfigure.graphql.data.GraphQlQuerydslAutoConfiguration&lt;/div&gt;&lt;div&gt;org.springframework.boot.autoconfigure.graphql.reactive.GraphQlWebFluxAutoConfiguration&lt;/div&gt;&lt;div&gt;org.springframework.boot.autoconfigure.graphql.rsocket.GraphQlRSocketAutoConfiguration&lt;/div&gt;&lt;div&gt;org.springframework.boot.autoconfigure.graphql.rsocket.RSocketGraphQlClientAutoConfiguration&lt;/div&gt;&lt;div&gt;org.springframework.boot.autoconfigure.graphql.security.GraphQlWebFluxSecurityAutoConfiguration&lt;/div&gt;&lt;div&gt;org.springframework.boot.autoconfigure.graphql.security.GraphQlWebMvcSecurityAutoConfiguration&lt;/div&gt;&lt;div&gt;org.springframework.boot.autoconfigure.graphql.servlet.GraphQlWebMvcAutoConfiguration&lt;/div&gt;&lt;div&gt;org.springframework.boot.autoconfigure.groovy.template.GroovyTemplateAutoConfiguration&lt;/div&gt;&lt;div&gt;org.springframework.boot.autoconfigure.gson.GsonAutoConfiguration&lt;/div&gt;&lt;div&gt;org.springframework.boot.autoconfigure.h2.H2ConsoleAutoConfiguration&lt;/div&gt;&lt;div&gt;org.springframework.boot.autoconfigure.hateoas.HypermediaAutoConfiguration&lt;/div&gt;&lt;div&gt;org.springframework.boot.autoconfigure.hazelcast.HazelcastAutoConfiguration&lt;/div&gt;&lt;div&gt;org.springframework.boot.autoconfigure.hazelcast.HazelcastJpaDependencyAutoConfiguration&lt;/div&gt;&lt;div&gt;org.springframework.boot.autoconfigure.http.HttpMessageConvertersAutoConfiguration&lt;/div&gt;&lt;div&gt;org.springframework.boot.autoconfigure.http.client.HttpClientAutoConfiguration&lt;/div&gt;&lt;div&gt;org.springframework.boot.autoconfigure.http.client.reactive.ClientHttpConnectorAutoConfiguration&lt;/div&gt;&lt;div&gt;org.springframework.boot.autoconfigure.http.codec.CodecsAutoConfiguration&lt;/div&gt;&lt;div&gt;org.springframework.boot.autoconfigure.info.ProjectInfoAutoConfiguration&lt;/div&gt;&lt;div&gt;org.springframework.boot.autoconfigure.integration.IntegrationAutoConfiguration&lt;/div&gt;&lt;div&gt;org.springframework.boot.autoconfigure.jackson.JacksonAutoConfiguration&lt;/div&gt;&lt;div&gt;org.springframework.boot.autoconfigure.jdbc.DataSourceAutoConfiguration&lt;/div&gt;&lt;div&gt;org.springframework.boot.autoconfigure.jdbc.JdbcClientAutoConfiguration&lt;/div&gt;&lt;div&gt;org.springframework.boot.autoconfigure.jdbc.JdbcTemplateAutoConfiguration&lt;/div&gt;&lt;div&gt;org.springframework.boot.autoconfigure.jdbc.JndiDataSourceAutoConfiguration&lt;/div&gt;&lt;div&gt;org.springframework.boot.autoconfigure.jdbc.XADataSourceAutoConfiguration&lt;/div&gt;&lt;div&gt;org.springframework.boot.autoconfigure.jdbc.DataSourceTransactionManagerAutoConfiguration&lt;/div&gt;&lt;div&gt;org.springframework.boot.autoconfigure.jersey.JerseyAutoConfiguration&lt;/div&gt;&lt;div&gt;org.springframework.boot.autoconfigure.jms.JmsAutoConfiguration&lt;/div&gt;&lt;div&gt;org.springframework.boot.autoconfigure.jmx.JmxAutoConfiguration&lt;/div&gt;&lt;div&gt;org.springframework.boot.autoconfigure.jms.JndiConnectionFactoryAutoConfiguration&lt;/div&gt;&lt;div&gt;org.springframework.boot.autoconfigure.jms.activemq.ActiveMQAutoConfiguration&lt;/div&gt;&lt;div&gt;org.springframework.boot.autoconfigure.jms.artemis.ArtemisAutoConfiguration&lt;/div&gt;&lt;div&gt;org.springframework.boot.autoconfigure.jooq.JooqAutoConfiguration&lt;/div&gt;&lt;div&gt;org.springframework.boot.autoconfigure.jsonb.JsonbAutoConfiguration&lt;/div&gt;&lt;div&gt;org.springframework.boot.autoconfigure.kafka.KafkaAutoConfiguration&lt;/div&gt;&lt;div&gt;org.springframework.boot.autoconfigure.availability.ApplicationAvailabilityAutoConfiguration&lt;/div&gt;&lt;div&gt;org.springframework.boot.autoconfigure.ldap.embedded.EmbeddedLdapAutoConfiguration&lt;/div&gt;&lt;div&gt;org.springframework.boot.autoconfigure.ldap.LdapAutoConfiguration&lt;/div&gt;&lt;div&gt;org.springframework.boot.autoconfigure.liquibase.LiquibaseAutoConfiguration&lt;/div&gt;&lt;div&gt;org.springframework.boot.autoconfigure.mail.MailSenderAutoConfiguration&lt;/div&gt;&lt;div&gt;org.springframework.boot.autoconfigure.mail.MailSenderValidatorAutoConfiguration&lt;/div&gt;&lt;div&gt;org.springframework.boot.autoconfigure.mongo.MongoAutoConfiguration&lt;/div&gt;&lt;div&gt;org.springframework.boot.autoconfigure.mongo.MongoReactiveAutoConfiguration&lt;/div&gt;&lt;div&gt;org.springframework.boot.autoconfigure.mustache.MustacheAutoConfiguration&lt;/div&gt;&lt;div&gt;org.springframework.boot.autoconfigure.neo4j.Neo4jAutoConfiguration&lt;/div&gt;&lt;div&gt;org.springframework.boot.autoconfigure.netty.NettyAutoConfiguration&lt;/div&gt;&lt;div&gt;org.springframework.boot.autoconfigure.orm.jpa.HibernateJpaAutoConfiguration&lt;/div&gt;&lt;div&gt;org.springframework.boot.autoconfigure.pulsar.PulsarAutoConfiguration&lt;/div&gt;&lt;div&gt;org.springframework.boot.autoconfigure.pulsar.PulsarReactiveAutoConfiguration&lt;/div&gt;&lt;div&gt;org.springframework.boot.autoconfigure.quartz.QuartzAutoConfiguration&lt;/div&gt;&lt;div&gt;org.springframework.boot.autoconfigure.r2dbc.R2dbcAutoConfiguration&lt;/div&gt;&lt;div&gt;org.springframework.boot.autoconfigure.r2dbc.R2dbcProxyAutoConfiguration&lt;/div&gt;&lt;div&gt;org.springframework.boot.autoconfigure.r2dbc.R2dbcTransactionManagerAutoConfiguration&lt;/div&gt;&lt;div&gt;org.springframework.boot.autoconfigure.reactor.ReactorAutoConfiguration&lt;/div&gt;&lt;div&gt;org.springframework.boot.autoconfigure.rsocket.RSocketMessagingAutoConfiguration&lt;/div&gt;&lt;div&gt;org.springframework.boot.autoconfigure.rsocket.RSocketRequesterAutoConfiguration&lt;/div&gt;&lt;div&gt;org.springframework.boot.autoconfigure.rsocket.RSocketServerAutoConfiguration&lt;/div&gt;&lt;div&gt;org.springframework.boot.autoconfigure.rsocket.RSocketStrategiesAutoConfiguration&lt;/div&gt;&lt;div&gt;org.springframework.boot.autoconfigure.security.servlet.SecurityAutoConfiguration&lt;/div&gt;&lt;div&gt;org.springframework.boot.autoconfigure.security.servlet.UserDetailsServiceAutoConfiguration&lt;/div&gt;&lt;div&gt;org.springframework.boot.autoconfigure.security.servlet.SecurityFilterAutoConfiguration&lt;/div&gt;&lt;div&gt;org.springframework.boot.autoconfigure.security.reactive.ReactiveSecurityAutoConfiguration&lt;/div&gt;&lt;div&gt;org.springframework.boot.autoconfigure.security.reactive.ReactiveUserDetailsServiceAutoConfiguration&lt;/div&gt;&lt;div&gt;org.springframework.boot.autoconfigure.security.rsocket.RSocketSecurityAutoConfiguration&lt;/div&gt;&lt;div&gt;org.springframework.boot.autoconfigure.security.saml2.Saml2RelyingPartyAutoConfiguration&lt;/div&gt;&lt;div&gt;org.springframework.boot.autoconfigure.sendgrid.SendGridAutoConfiguration&lt;/div&gt;&lt;div&gt;org.springframework.boot.autoconfigure.session.SessionAutoConfiguration&lt;/div&gt;&lt;div&gt;org.springframework.boot.autoconfigure.security.oauth2.client.OAuth2ClientAutoConfiguration&lt;/div&gt;&lt;div&gt;org.springframework.boot.autoconfigure.security.oauth2.client.servlet.OAuth2ClientWebSecurityAutoConfiguration&lt;/div&gt;&lt;div&gt;org.springframework.boot.autoconfigure.security.oauth2.client.reactive.ReactiveOAuth2ClientAutoConfiguration&lt;/div&gt;&lt;div&gt;org.springframework.boot.autoconfigure.security.oauth2.client.reactive.ReactiveOAuth2ClientWebSecurityAutoConfiguration&lt;/div&gt;&lt;div&gt;org.springframework.boot.autoconfigure.security.oauth2.resource.servlet.OAuth2ResourceServerAutoConfiguration&lt;/div&gt;&lt;div&gt;org.springframework.boot.autoconfigure.security.oauth2.resource.reactive.ReactiveOAuth2ResourceServerAutoConfiguration&lt;/div&gt;&lt;div&gt;org.springframework.boot.autoconfigure.security.oauth2.server.servlet.OAuth2AuthorizationServerAutoConfiguration&lt;/div&gt;&lt;div&gt;org.springframework.boot.autoconfigure.security.oauth2.server.servlet.OAuth2AuthorizationServerJwtAutoConfiguration&lt;/div&gt;&lt;div&gt;org.springframework.boot.autoconfigure.sql.init.SqlInitializationAutoConfiguration&lt;/div&gt;&lt;div&gt;org.springframework.boot.autoconfigure.ssl.SslAutoConfiguration&lt;/div&gt;&lt;div&gt;org.springframework.boot.autoconfigure.task.TaskExecutionAutoConfiguration&lt;/div&gt;&lt;div&gt;org.springframework.boot.autoconfigure.task.TaskSchedulingAutoConfiguration&lt;/div&gt;&lt;div&gt;org.springframework.boot.autoconfigure.thymeleaf.ThymeleafAutoConfiguration&lt;/div&gt;&lt;div&gt;org.springframework.boot.autoconfigure.transaction.TransactionAutoConfiguration&lt;/div&gt;&lt;div&gt;org.springframework.boot.autoconfigure.transaction.TransactionManagerCustomizationAutoConfiguration&lt;/div&gt;&lt;div&gt;org.springframework.boot.autoconfigure.transaction.jta.JtaAutoConfiguration&lt;/div&gt;&lt;div&gt;org.springframework.boot.autoconfigure.validation.ValidationAutoConfiguration&lt;/div&gt;&lt;div&gt;org.springframework.boot.autoconfigure.web.client.RestClientAutoConfiguration&lt;/div&gt;&lt;div&gt;org.springframework.boot.autoconfigure.web.client.RestTemplateAutoConfiguration&lt;/div&gt;&lt;div&gt;org.springframework.boot.autoconfigure.web.embedded.EmbeddedWebServerFactoryCustomizerAutoConfiguration&lt;/div&gt;&lt;div&gt;org.springframework.boot.autoconfigure.web.reactive.HttpHandlerAutoConfiguration&lt;/div&gt;&lt;div&gt;org.springframework.boot.autoconfigure.web.reactive.ReactiveMultipartAutoConfiguration&lt;/div&gt;&lt;div&gt;org.springframework.boot.autoconfigure.web.reactive.ReactiveWebServerFactoryAutoConfiguration&lt;/div&gt;&lt;div&gt;org.springframework.boot.autoconfigure.web.reactive.WebFluxAutoConfiguration&lt;/div&gt;&lt;div&gt;org.springframework.boot.autoconfigure.web.reactive.WebSessionIdResolverAutoConfiguration&lt;/div&gt;&lt;div&gt;org.springframework.boot.autoconfigure.web.reactive.error.ErrorWebFluxAutoConfiguration&lt;/div&gt;&lt;div&gt;org.springframework.boot.autoconfigure.web.reactive.function.client.ClientHttpConnectorAutoConfiguration&lt;/div&gt;&lt;div&gt;org.springframework.boot.autoconfigure.web.reactive.function.client.WebClientAutoConfiguration&lt;/div&gt;&lt;div&gt;org.springframework.boot.autoconfigure.web.servlet.DispatcherServletAutoConfiguration&lt;/div&gt;&lt;div&gt;org.springframework.boot.autoconfigure.web.servlet.ServletWebServerFactoryAutoConfiguration&lt;/div&gt;&lt;div&gt;org.springframework.boot.autoconfigure.web.servlet.error.ErrorMvcAutoConfiguration&lt;/div&gt;&lt;div&gt;org.springframework.boot.autoconfigure.web.servlet.HttpEncodingAutoConfiguration&lt;/div&gt;&lt;div&gt;org.springframework.boot.autoconfigure.web.servlet.MultipartAutoConfiguration&lt;/div&gt;&lt;div&gt;org.springframework.boot.autoconfigure.web.servlet.WebMvcAutoConfiguration&lt;/div&gt;&lt;div&gt;org.springframework.boot.autoconfigure.websocket.reactive.WebSocketReactiveAutoConfiguration&lt;/div&gt;&lt;div&gt;org.springframework.boot.autoconfigure.websocket.servlet.WebSocketServletAutoConfiguration&lt;/div&gt;&lt;div&gt;org.springframework.boot.autoconfigure.websocket.servlet.WebSocketMessagingAutoConfiguration&lt;/div&gt;&lt;div&gt;org.springframework.boot.autoconfigure.webservices.WebServicesAutoConfiguration&lt;/div&gt;&lt;div&gt;org.springframework.boot.autoconfigure.webservices.client.WebServiceTemplateAutoConfiguration&lt;/div&gt;&lt;/div&gt;" style="text;html=1;align=left;verticalAlign=top;whiteSpace=wrap;rounded=0;fontSize=20;" vertex="1" parent="1">
          <mxGeometry x="900" y="176" width="1030" height="3774" as="geometry" />
        </mxCell>
      </root>
    </mxGraphModel>
  </diagram>
</mxfile>
